<?xml version="1.0" encoding="utf-8"?>
<!-- Generator: Adobe Illustrator 19.2.0, SVG Export Plug-In . SVG Version: 6.00 Build 0)  -->
<svg version="1.1" id="Layer_1" xmlns="http://www.w3.org/2000/svg" xmlns:xlink="http://www.w3.org/1999/xlink" x="0px" y="0px"
	 viewBox="0 0 64 80" style="enable-background:new 0 0 64 80;" xml:space="preserve">
<title>a</title>
<g>
	<path d="M57.2,48.9h-4v-4c0-1.1-0.9-2-2-2h-0.8c-1.9-6.6-6.8-12-13.2-14.5c6.4-4.4,8-13.1,3.6-19.5s-13.1-8-19.5-3.6
		s-8,13.1-3.6,19.5c1,1.4,2.2,2.6,3.6,3.6c-8.5,3.3-14,11.4-14,20.5v16c0,1.1,0.9,2,2,2h42c1.1,0,2-0.9,2-2v-4h4c1.1,0,2-0.9,2-2v-8
		C59.2,49.8,58.4,48.9,57.2,48.9z M19.2,16.9c0-5.5,4.5-10,10-10s10,4.5,10,10s-4.5,10-10,10C23.7,26.9,19.3,22.4,19.2,16.9z
		 M11.2,48.9c0-9.9,8-18,18-18c7.6,0,14.4,4.8,17,12h-3c-1.1,0-2,0.9-2,2v4h-4c-1.1,0-2,0.9-2,2v8c0,1.1,0.9,2,2,2h4v2h-30V48.9z
		 M55.2,56.9h-4c-1.1,0-2,0.9-2,2v4h-4v-4c0-1.1-0.9-2-2-2h-4v-4h4c1.1,0,2-0.9,2-2v-4h4v4c0,1.1,0.9,2,2,2h4V56.9z"/>
</g>
</svg>
