<?xml version="1.0" encoding="utf-8"?>
<!-- Generator: Adobe Illustrator 19.2.0, SVG Export Plug-In . SVG Version: 6.00 Build 0)  -->
<svg version="1.1" id="Layer_1" xmlns="http://www.w3.org/2000/svg" xmlns:xlink="http://www.w3.org/1999/xlink" x="0px" y="0px"
	 viewBox="0 0 100 125" style="enable-background:new 0 0 100 125;" xml:space="preserve">
<title>Legacy icon pack vol.1</title>
<path d="M5.4,59.9H8v30.3c0,0.6,0.4,1,1,1h83.2c0.6,0,1-0.4,1-1V59.9h1.5c0.6,0,1-0.4,1-1V47.4c0-0.6-0.4-1-1-1h-3.5v-9.6
	c0-0.2-0.1-0.4-0.2-0.6l-7.1-10.3v-2.5h5.3c0.6,0,1-0.4,1-1v-5.1c0-0.6-0.4-1-1-1h-6.4c-0.6,0-1,0.4-1,1v5.1c0,0.1,0,0.1,0,0.2v3.3
	l-7.1,11.1c0,0,0,0.1,0,0.1c0,0,0,0.1,0,0.1c0,0.1-0.1,0.2-0.1,0.3v8.8h-4.7c-0.6,0-1,0.4-1,1v11.5c0,0.6,0.4,1,1,1h2.7v1.4h-4.8
	c-0.6,0-1,0.4-1,1v3.2h-2.9v-3.2c0-0.6-0.4-1-1-1h-0.4V35.5c0-0.2-0.1-0.4-0.2-0.5L51.7,18.7v-8.5c0-0.6-0.4-1-1-1h-6.4
	c-0.6,0-1,0.4-1,1v5.1c0,0.6,0.4,1,1,1h5.4v2.5L39.1,35C39,35.2,39,35.4,39,35.5v25.7h-1.2c-0.6,0-1,0.4-1,1v3.2h-2.9v-3.2
	c0-0.6-0.4-1-1-1h-4.3v-1.4h1.5c0.6,0,1-0.4,1-1V47.4c0-0.6-0.4-1-1-1h-3.5v-9.6c0-0.2-0.1-0.4-0.2-0.6l-7.1-10.3v-8.6
	c0-0.6-0.4-1-1-1H12c-0.6,0-1,0.4-1,1v5.1c0,0.6,0.4,1,1,1h5.4v2.5l-7.2,11.1l-0.1,0.1c0,0,0,0.1,0,0.1c0,0.1-0.1,0.2-0.1,0.3v8.8
	H5.4c-0.6,0-1,0.4-1,1v11.5C4.4,59.4,4.8,59.9,5.4,59.9z M46.4,89.2V75.5h3.2v13.7H46.4z M51.6,89.2V75.5h3.5v13.7H51.6z M85.3,46.4
	h-4.8c-0.6,0-1,0.4-1,1v3.9h-2.9V38.6h12.6v8.8c0,0.1,0,0.1,0,0.2v3.7h-2.9v-3.9C86.3,46.8,85.8,46.4,85.3,46.4z M82.9,28l5.9,8.6
	H77.4L82.9,28z M88.2,21.4h-4.3v-3.1h4.3L88.2,21.4z M70.9,48.4h3.6v3.9c0,0.6,0.4,1,1,1h4.9c0.6,0,1-0.4,1-1v-3.9h2.8v3.9
	c0,0.6,0.4,1,1,1h4.9c0.6,0,1-0.4,1-1v-3.9h2.4v9.5h-1.3c0,0-0.1,0-0.1,0H73.6c0,0-0.1,0-0.1,0h-2.5L70.9,48.4z M91.2,59.9v29.3
	H74.7V62.3c0-0.1,0-0.2-0.1-0.3v-2.1H91.2z M45.3,14.2v-3.1h4.4v3.1H45.3z M41,35.8l9.8-15l9.7,14.9v25.5h-2.7c-0.6,0-1,0.4-1,1v3.2
	h-2.9v-3.2c0-0.6-0.4-1-1-1h-5.2c-0.6,0-1,0.4-1,1v3.2H44v-3.2c0-0.6-0.4-1-1-1h-2V35.8z M28.6,63.3h3.3v3.2c0,0.6,0.4,1,1,1h4.9
	c0.6,0,1-0.4,1-1v-3.2H42v3.2c0,0.6,0.4,1,1,1h4.8c0.6,0,1-0.4,1-1v-3.2H52v3.2c0,0.6,0.4,1,1,1h4.9c0.6,0,1-0.4,1-1v-3.2h3v3.2
	c0,0.6,0.4,1,1,1h4.9c0.6,0,1-0.4,1-1v-3.2h3.8v25.9H57.1V74.5c0-0.6-0.4-1-1-1H45.4c-0.6,0-1,0.4-1,1v14.7H28.6V63.3z M26.6,89.2
	H10V59.9h16.6L26.6,89.2z M20.7,46.4h-4.8c-0.6,0-1,0.4-1,1v3.9H12V38.6h12.6v8.8c0,0.1,0,0.1,0,0.2v3.7h-2.9v-3.9
	C21.7,46.8,21.3,46.4,20.7,46.4z M18.4,28l5.9,8.6H12.8L18.4,28z M13,21.5v-3.1h4.4v3.1H13z M6.4,48.5H10v3.9c0,0.6,0.4,1,1,1h4.9
	c0.6,0,1-0.4,1-1v-4h2.8v3.9c0,0.6,0.4,1,1,1h4.9c0.6,0,1-0.4,1-1v-3.9h2.5v9.5h-1.3c0,0-0.1,0-0.1,0H9c0,0-0.1,0-0.1,0H6.4
	L6.4,48.5z"/>
<path d="M47.9,46.4h5.7c0.6,0,1-0.4,1-1V35.1c0-0.6-0.4-1-1-1h-5.7c-0.6,0-1,0.4-1,1v10.3C46.9,45.9,47.3,46.4,47.9,46.4z
	 M48.9,36.1h3.7v8.3h-3.7V36.1z"/>
</svg>
