<?xml version="1.0" encoding="utf-8"?>
<!-- Generator: Adobe Illustrator 19.2.0, SVG Export Plug-In . SVG Version: 6.00 Build 0)  -->
<svg version="1.1"
	 id="Layer_1" 
	 xmlns:cc="http://creativecommons.org/ns#" 
	 height="3em" 
	 xmlns:dc="http://purl.org/dc/elements/1.1/" 
	 xmlns:inkscape="http://www.inkscape.org/namespaces/inkscape" 
	 xmlns:rdf="http://www.w3.org/1999/02/22-rdf-syntax-ns#" 
	 xmlns:sodipodi="http://sodipodi.sourceforge.net/DTD/sodipodi-0.dtd" xmlns:svg="http://www.w3.org/2000/svg"
	 xmlns="http://www.w3.org/2000/svg" xmlns:xlink="http://www.w3.org/1999/xlink" x="0px" y="0px" viewBox="0 0 32 40"
	 style="enable-background:new 0 0 32 40;" xml:space="preserve">
<g>
	<path d="M22.7,4c-0.3,0-0.5,0.1-0.7,0.3L11.4,14.9c-0.2,0.2-0.3,0.4-0.3,0.7v4.2c0,0.6,0.4,1,1,1h4.2c0.3,0,0.5-0.1,0.7-0.3
		L27.7,9.9c0.4-0.4,0.4-1,0-1.4l-4.2-4.2C23.3,4.1,23,4,22.7,4z M22.8,6.4l2.8,2.8L16,18.8h-2.8V16L22.8,6.4z"/>
	<path d="M7,8c-1.6,0-3,1.4-3,3v14c0,1.6,1.4,3,3,3h14c1.6,0,3-1.4,3-3v-6.1c0-0.6-0.4-1-1-1s-1,0.4-1,1c0,0,0,0,0,0V25
		c0,0.6-0.4,1-1,1H7c-0.6,0-1-0.4-1-1V11c0-0.6,0.4-1,1-1h6.1c0.6,0,1-0.4,1-1c0-0.6-0.4-1-1-1c0,0,0,0,0,0H7z"/>
</g>
</svg>
