<?xml version="1.0" encoding="utf-8"?>
<!-- Generator: Adobe Illustrator 19.2.0, SVG Export Plug-In . SVG Version: 6.00 Build 0)  -->
<svg version="1.1" id="Layer_1" xmlns="http://www.w3.org/2000/svg" xmlns:xlink="http://www.w3.org/1999/xlink" x="0px" y="0px"
	 viewBox="0 0 512 640" fill="#fff" height="5em" style="enable-background:new 0 0 512 640;" xml:space="preserve">
<g>
	<g>
		<g>
			<g>
				<path d="M257.1,236.9c-39.4,0-71.5-32.1-71.5-71.5S217.7,94,257.1,94c39.4,0,71.5,32.1,71.5,71.5S296.5,236.9,257.1,236.9z
					 M257.1,114c-28.4,0-51.5,23.1-51.5,51.5s23.1,51.5,51.5,51.5c28.4,0,51.5-23.1,51.5-51.5S285.5,114,257.1,114z"/>
			</g>
			<g>
				<path d="M393.7,224.3c-30.3,0-54.9-24.6-54.9-54.9c0-30.3,24.6-54.9,54.9-54.9s54.9,24.6,54.9,54.9
					C448.6,199.7,424,224.3,393.7,224.3z M393.7,134.5c-19.2,0-34.9,15.7-34.9,34.9s15.7,34.9,34.9,34.9s34.9-15.7,34.9-34.9
					S412.9,134.5,393.7,134.5z"/>
			</g>
			<g>
				<path d="M144.4,356.5H63.8c-0.6,0-1.2-0.1-1.8-0.2c-20.9-3.8-36-21.9-36-43.2v-16.6c0-50.9,41.4-92.3,92.3-92.3
					c31.1,0,59.9,15.5,77.1,41.6c2.9,4.3,1.9,10.1-2.1,13.3c-24.7,19.6-38.9,48.9-38.9,80.4v6.9C154.4,352,149.9,356.5,144.4,356.5z
					 M64.8,336.5h69.7c0.8-33.2,14.8-64.2,39-86.7c-13.7-16.1-33.7-25.6-55.2-25.6c-39.9,0-72.3,32.4-72.3,72.3v16.6
					C46,324.5,53.9,334.1,64.8,336.5z"/>
			</g>
			<g>
				<path d="M448.2,356.5h-78.4c-5.5,0-10-4.5-10-10v-6.9c0-30.2-13.2-58.8-36.3-78.3c-1.1-1-2.4-2-3.8-3.1
					c-4.2-3.2-5.2-9.2-2.2-13.6c17.2-25.3,45.7-40.3,76.3-40.3c50.9,0,92.3,41.4,92.3,92.3v16.6c0,21.2-15.1,39.4-36,43.2
					C449.4,356.5,448.8,356.5,448.2,356.5z M379.7,336.5h67.5c10.9-2.4,18.8-12.1,18.8-23.3v-16.6c0-39.9-32.4-72.3-72.3-72.3
					c-20.9,0-40.6,9-54.2,24.5C364.4,271.3,378.9,302.9,379.7,336.5z"/>
			</g>
			<g>
				<path d="M331.7,418H182.5c-0.6,0-1.2-0.1-1.8-0.2c-26.8-4.9-46.3-28.2-46.3-55.5v-22.8c0-37.6,16.9-72.6,46.4-96.1
					c21.9-17.4,48.3-26.6,76.3-26.6c27.3,0,53.1,8.8,74.7,25.4c1.7,1.3,3.2,2.5,4.6,3.7c21.4,18.2,36.1,43.3,41.3,70.8
					c1,5.4-2.6,10.7-8,11.7c-5.4,1-10.7-2.6-11.7-8c-4.3-23-16.6-44-34.5-59.3c-1.1-1-2.4-2-3.8-3.1c-18.1-13.9-39.7-21.2-62.5-21.2
					c-23.4,0-45.5,7.7-63.8,22.2c-24.7,19.6-38.9,48.9-38.9,80.4v22.8c0,17.3,12.2,32.1,29,35.6h147.3c1.6-0.3,3.2-0.8,4.7-1.3
					c5.2-1.8,10.9,0.9,12.7,6.1c1.8,5.2-0.9,10.9-6.1,12.7c-2.8,1-5.7,1.7-8.6,2.3C332.9,417.9,332.3,418,331.7,418z M369.2,379.5
					c-0.5,0-1,0-1.5-0.1c-5.5-0.8-9.2-6-8.4-11.4c0-0.3,0.1-0.5,0.1-0.8c0.7-5.5,5.8-9.3,11.2-8.6c5.5,0.7,9.3,5.8,8.6,11.2
					c-0.1,0.4-0.1,0.8-0.2,1.2C378.3,376,374.1,379.5,369.2,379.5z"/>
			</g>
			<g>
				<path d="M118.3,224.3c-30.3,0-54.9-24.6-54.9-54.9c0-30.3,24.6-54.9,54.9-54.9c30.3,0,54.9,24.6,54.9,54.9
					C173.2,199.7,148.6,224.3,118.3,224.3z M118.3,134.5c-19.2,0-34.9,15.7-34.9,34.9s15.7,34.9,34.9,34.9s34.9-15.7,34.9-34.9
					S137.5,134.5,118.3,134.5z"/>
			</g>
		</g>
	</g>
</g>
</svg>
