<?xml version="1.0" encoding="utf-8"?>
<!-- Generator: Adobe Illustrator 19.2.0, SVG Export Plug-In . SVG Version: 6.00 Build 0)  -->
<svg version="1.1" id="Layer_1" xmlns="http://www.w3.org/2000/svg" xmlns:xlink="http://www.w3.org/1999/xlink" x="0px" y="0px"
	 viewBox="0 0 1024 1280" style="enable-background:new 0 0 1024 1280;" xml:space="preserve">
<g>
	<g>
		<g>
			<path d="M882.5,245c0,17.8,0,35.7,0,53.5c0,42.8,0,85.6,0,128.3c0,51.6,0,103.3,0,154.9c0,44.4,0,88.8,0,133.3
				c0,21.1,0.2,42.2,0,63.3c0,1.8-0.1,3.6-0.3,5.5c0.4-2.7,0.7-5.3,1.1-8c-0.5,3.1-1.2,6.1-2.3,9.1c1-2.4,2-4.8,3-7.2
				c-0.9,2.1-1.9,4.2-3.1,6.1c-0.6,0.9-2.9,4,0.1,0.1c3.2-4.2,0.1-0.3-0.6,0.4c-0.2,0.2-2.2,2-2.2,2.1c-0.3-0.4,6.3-4.1,2.4-2
				c-2.3,1.3-4.4,2.5-6.8,3.5c2.4-1,4.8-2,7.2-3c-3,1.1-5.9,1.9-9.1,2.3c2.7-0.4,5.3-0.7,8-1.1c-7.7,0.8-15.7,0.3-23.4,0.3
				c-17.5,0-35.1,0-52.6,0c-26,0-52,0-77.9,0c-31.9,0-63.9,0-95.8,0c-35,0-70,0-105.1,0c-35.4,0-70.7,0-106.1,0
				c-32.8,0-65.6,0-98.4,0c-27.8,0-55.6,0-83.4,0c-19.9,0-39.7,0-59.6,0c-9.2,0-18.4,0.1-27.6,0c-1.9,0-3.9-0.1-5.8-0.3
				c2.7,0.4,5.3,0.7,8,1.1c-3.1-0.5-6.1-1.2-9.1-2.3c2.4,1,4.8,2,7.2,3c-2.1-0.9-4.2-1.9-6.1-3.1c-0.9-0.6-4-2.9-0.1,0.1
				c4.2,3.2,0.3,0.1-0.4-0.6c-0.2-0.2-2-2.2-2.1-2.2c0.4-0.3,4.1,6.3,2,2.4c-1.3-2.3-2.5-4.4-3.5-6.8c1,2.4,2,4.8,3,7.2
				c-1.1-3-1.9-5.9-2.3-9.1c0.4,2.7,0.7,5.3,1.1,8c-0.6-6-0.3-12.3-0.3-18.3c0-12.9,0-25.8,0-38.7c0-42.6,0-85.1,0-127.7
				c0-52,0-103.9,0-155.9c0-44.5,0-89,0-133.5c0-21.3-0.2-42.7,0-64c0-1.9,0.1-3.7,0.3-5.6c-0.4,2.7-0.7,5.3-1.1,8
				c0.5-3.2,1.3-6.2,2.4-9.2c-1,2.4-2,4.8-3,7.2c0.8-1.9,1.7-3.8,2.8-5.6c0.1-0.2,1.6-2.6,1.7-2.6c0.2,0.1-5.4,6.2-1.2,2
				c0.7-0.7,1.5-1.3,2.2-2.1c2.3-2.3-5.4,3.5-2.5,2c2-1.1,3.8-2.3,5.9-3.3c-2.4,1-4.8,2-7.2,3c3.4-1.4,6.7-2.3,10.3-2.8
				c-2.7,0.4-5.3,0.7-8,1.1c7.7-0.8,15.6-0.3,23.3-0.3c17.5,0,35.1,0,52.6,0c26,0,52,0,77.9,0c31.9,0,63.9,0,95.8,0
				c35,0,70,0,105.1,0c35.4,0,70.7,0,106.1,0c32.8,0,65.6,0,98.4,0c27.8,0,55.6,0,83.4,0c19.9,0,39.7,0,59.6,0
				c9.2,0,18.4-0.1,27.6,0c1.9,0,3.8,0.1,5.7,0.3c-2.7-0.4-5.3-0.7-8-1.1c3.6,0.5,6.9,1.5,10.3,2.8c-2.4-1-4.8-2-7.2-3
				c1.8,0.8,3.5,1.8,5.3,2.8c3.6,2.1-2.1-2-2.5-2c0.9,0.3,2.1,1.9,2.8,2.5c0.8,0.8,3.1,3.8,0.2-0.1c-3-4-0.7-0.8-0.1,0.1
				c1.3,2,2.3,4,3.2,6.2c-1-2.4-2-4.8-3-7.2c1.2,3,1.9,6,2.4,9.2c-0.4-2.7-0.7-5.3-1.1-8C882.3,241.8,882.4,243.4,882.5,245
				c0.3,15.7,13.6,30.7,30,30c16-0.7,30.4-13.2,30-30c-0.8-37.2-30.3-66.9-67.5-67.5c-1.6,0-3.3,0-4.9,0c-10.8,0-21.7,0-32.5,0
				c-44.4,0-88.8,0-133.2,0c-61.3,0-122.5,0-183.8,0c-62,0-124,0-185.9,0c-46.5,0-93,0-139.6,0c-12.5,0-24.9,0-37.4,0
				c-2.6,0-5.2,0-7.7,0c-22.9,0.1-42.5,10.7-56,28.9c-12,16.1-12.3,34.4-12.3,53.2c0,16.9,0,33.8,0,50.8c0,56.4,0,112.8,0,169.2
				c0,61.7,0,123.4,0,185.2c0,36.4,0,72.8,0,109.2c0,2.8-0.1,5.5,0.1,8.3c2.4,35.9,31.3,63.7,67.4,64.3c6.1,0.1,12.1,0,18.2,0
				c37.8,0,75.7,0,113.5,0c58.6,0,117.3,0,175.9,0c63.3,0,126.6,0,189.9,0c51.8,0,103.6,0,155.3,0c24.1,0,48.2,0.2,72.3,0
				c23.8-0.2,44.9-11.9,58-31.7c7.4-11.3,10.3-24.9,10.3-38.3c0-11.4,0-22.7,0-34.1c0-51,0-102,0-152.9c0-63,0-125.9,0-188.9
				c0-45.2,0-90.5,0-135.7c0-6.6,0-13.3,0-19.9c0-15.7-13.8-30.7-30-30C896.2,215.7,882.5,228.2,882.5,245z"/>
		</g>
	</g>
	<g>
		<g>
			<path d="M879.9,196.9c-12.4,11.6-24.8,23.2-37.2,34.8c-29.7,27.8-59.4,55.6-89.1,83.3c-35.8,33.4-71.5,66.9-107.3,100.3
				c-30.5,28.6-61.1,57.1-91.6,85.7c-14.1,13.1-28.4,26-42.2,39.5c-0.1,0.1-0.1,0.1-0.2,0.2c-1.9,1.8-3.2,1.2,2.6-1.9
				c-2.1,1.1-4.1,2.5-6.3,3.4c2.4-1,4.8-2,7.2-3c-2.2,0.8-4.5,1.4-6.8,1.9c2.7-0.4,5.3-0.7,8-1.1c-3.3,0.4-6.5,0.4-9.8,0
				c2.7,0.4,5.3,0.7,8,1.1c-2.3-0.4-4.6-1-6.8-1.9c2.4,1,4.8,2,7.2,3c-1.2-0.5-5.8-2.1-6.3-3.4c-0.1-0.1,6.1,5.3,2.6,1.9
				c-0.1-0.1-0.2-0.2-0.3-0.2c-0.5-0.5-1-0.9-1.5-1.4c-2.2-2.1-4.4-4.1-6.6-6.2c-8.6-8-17.1-16-25.7-24
				c-29.1-27.3-58.3-54.5-87.4-81.8c-35.7-33.4-71.4-66.8-107.2-100.2c-31-29-62.1-58-93.1-87.1c-15.1-14.1-29.8-28.7-45.3-42.3
				c-0.2-0.2-0.4-0.4-0.6-0.6c0,14.1,0,28.3,0,42.4c0.7-0.7,1.5-1.4,2.2-2c-4.2,3.1-5,3.8-2.5,2c1.8-1,3.4-2,5.3-2.8
				c-2.4,1-4.8,2-7.2,3c3.4-1.4,6.7-2.3,10.3-2.8c-2.7,0.4-5.3,0.7-8,1.1c7.7-0.8,15.6-0.3,23.3-0.3c17.5,0,35.1,0,52.6,0
				c26,0,52,0,77.9,0c31.9,0,63.9,0,95.8,0c35,0,70,0,105.1,0c35.4,0,70.7,0,106.1,0c32.8,0,65.6,0,98.4,0c27.8,0,55.6,0,83.4,0
				c19.9,0,39.7,0,59.6,0c9.2,0,18.4-0.1,27.6,0c1.9,0,3.8,0.1,5.7,0.3c-2.7-0.4-5.3-0.7-8-1.1c3.6,0.5,6.9,1.5,10.3,2.8
				c-2.4-1-4.8-2-7.2-3c1.8,0.8,3.5,1.9,5.3,2.8c2.5,1.7,1.7,1.1-2.5-2c0.8,0.6,1.5,1.3,2.2,2c11.5,10.7,31.2,12.2,42.4,0
				c10.7-11.6,12.3-31,0-42.4c-13.7-12.8-30.7-19.4-49.4-19.4c-3.9,0-7.7,0-11.6,0c-16.8,0-33.5,0-50.3,0c-26.4,0-52.7,0-79.1,0
				c-32.7,0-65.4,0-98.1,0c-36.1,0-72.2,0-108.4,0c-36.5,0-73,0-109.5,0c-33.8,0-67.7,0-101.5,0c-28.2,0-56.5,0-84.7,0
				c-19.4,0-38.7,0-58.1,0c-7.6,0-15.2-0.1-22.7,0c-18,0.3-34.3,7.2-47.4,19.4c-11.6,10.8-11.5,31.6,0,42.4
				c12.9,12,25.7,24.1,38.6,36.1c30.4,28.4,60.8,56.9,91.2,85.3c36.3,34,72.7,68,109,102c30.4,28.4,60.7,56.8,91.1,85.2
				c12.9,12.1,25.5,24.6,38.8,36.2c11.7,10.2,26.5,16.6,42.2,16.3c16-0.4,30.2-6.6,42-17.2c0.9-0.8,1.8-1.7,2.7-2.5
				c6.6-6.1,13.1-12.3,19.7-18.4c27.2-25.4,54.3-50.8,81.5-76.2c36-33.7,72-67.3,108-101c33-30.8,66-61.7,98.9-92.5
				c18.1-16.9,36.2-33.9,54.3-50.8c0.9-0.8,1.7-1.6,2.6-2.4c11.5-10.7,11.7-31.7,0-42.4C910,185.6,892.2,185.5,879.9,196.9z"/>
		</g>
	</g>
	<g>
		<g>
			<path d="M657.3,603.7c25.1,25.1,50.3,50.3,75.4,75.4c40,40,80.1,80.1,120.1,120.1c9.2,9.2,18.3,18.3,27.5,27.5
				c11.1,11.1,31.5,11.9,42.4,0c11-12,11.9-30.6,0-42.4c-25.1-25.1-50.3-50.3-75.4-75.4c-40-40-80.1-80.1-120.1-120.1
				c-9.2-9.2-18.3-18.3-27.5-27.5c-11.1-11.1-31.5-11.9-42.4,0C646.3,573.3,645.4,591.9,657.3,603.7L657.3,603.7z"/>
		</g>
	</g>
	<g>
		<g>
			<path d="M143.7,826.7c25.1-25.1,50.3-50.3,75.4-75.4c40-40,80.1-80.1,120.1-120.1c9.2-9.2,18.3-18.3,27.5-27.5
				c11.1-11.1,11.9-31.5,0-42.4c-12-11-30.6-11.9-42.4,0c-25.1,25.1-50.3,50.3-75.4,75.4c-40,40-80.1,80.1-120.1,120.1
				c-9.2,9.2-18.3,18.3-27.5,27.5c-11.1,11.1-11.9,31.5,0,42.4C113.3,837.7,131.9,838.6,143.7,826.7L143.7,826.7z"/>
		</g>
	</g>
</g>
</svg>
